# xmcd
#
# Track frame offsets:
#	150
#	15180
#	34412
#	48587
#	63357
#	75100
#	91187
#	106845
#	116605
#	128635
#
# Disc length: 1977 seconds
#
# Revision: 2
# Processed by: cddbd v1.5.1PL0 Copyright (c) Steve Scherf et al.
# Submitted via: audiograbber 1.83.01
#
DISCID=6b07b70a
DTITLE=Tim Mensy - This Ol' Heart
DYEAR=1992
DGENRE=Country
TTITLE0=This Ol' Heart
TTITLE1=She Dreams
TTITLE2=That's Good
TTITLE3=He'll Use His Wings
TTITLE4=You Gotta Swim
TTITLE5=America For Sale
TTITLE6=Daddy's Shoes
TTITLE7=I've Got A Heart
TTITLE8=It's Showin'
TTITLE9=The Grandpa That I Know
EXTD=
EXTT0=
EXTT1=
EXTT2=
EXTT3=
EXTT4=
EXTT5=
EXTT6=
EXTT7=
EXTT8=
EXTT9=
PLAYORDER=
